<?xml version="1.0" encoding="utf-8"?>
<!-- Generator: Adobe Illustrator 16.0.0, SVG Export Plug-In . SVG Version: 6.00 Build 0)  -->
<!DOCTYPE svg PUBLIC "-//W3C//DTD SVG 1.1//EN" "http://www.w3.org/Graphics/SVG/1.1/DTD/svg11.dtd">
<svg version="1.1" id="Layer_1" xmlns="http://www.w3.org/2000/svg" xmlns:xlink="http://www.w3.org/1999/xlink" x="0px" y="0px"
	 width="20px" height="20px" viewBox="0 0 20 20" enable-background="new 0 0 20 20" xml:space="preserve">
<path fill="#ffffff" d="M9.999,0.491c-5.383,0-9.749,4.365-9.749,9.75c0,4.307,2.793,7.962,6.668,9.251
	c0.487,0.089,0.666-0.213,0.666-0.471c0-0.231-0.008-0.846-0.013-1.658c-2.712,0.589-3.284-1.307-3.284-1.307
	C3.844,14.93,3.204,14.63,3.204,14.63c-0.885-0.604,0.067-0.594,0.067-0.594c0.979,0.069,1.493,1.006,1.493,1.006
	c0.87,1.49,2.282,1.06,2.838,0.812c0.088-0.631,0.34-1.062,0.619-1.306C6.056,14.302,3.78,13.466,3.78,9.731
	c0-1.064,0.38-1.935,1.003-2.616c-0.1-0.247-0.435-1.239,0.096-2.581c0,0,0.819-0.262,2.682,0.999
	c0.777-0.216,1.612-0.324,2.441-0.328c0.827,0.003,1.661,0.111,2.439,0.328c1.863-1.261,2.68-0.999,2.68-0.999
	c0.531,1.342,0.197,2.333,0.098,2.581c0.624,0.681,1.002,1.552,1.002,2.616c0,3.746-2.279,4.569-4.451,4.811
	c0.351,0.302,0.66,0.896,0.66,1.806c0,1.305-0.012,2.354-0.012,2.676c0,0.261,0.176,0.563,0.671,0.469
	c3.871-1.292,6.662-4.944,6.662-9.25C19.75,4.856,15.385,0.491,9.999,0.491z"/>
</svg>
