<?xml version="1.0" encoding="utf-8"?>
<!-- Generator: Adobe Illustrator 26.3.1, SVG Export Plug-In . SVG Version: 6.00 Build 0)  -->
<svg version="1.1" id="Layer_1" xmlns="http://www.w3.org/2000/svg" xmlns:xlink="http://www.w3.org/1999/xlink" x="0px" y="0px"
	 width="20px" height="20px" viewBox="0 0 20 20" enable-background="new 0 0 20 20" xml:space="preserve">
<path fill="#ffffff" d="M10.001,0.25c-5.385,0-9.75,4.365-9.75,9.75c0,5.384,4.366,9.75,9.75,9.75c5.385,0,9.75-4.366,9.75-9.75
	C19.75,4.615,15.385,0.25,10.001,0.25z M15.43,6.668c0,0.027-0.001,0.094-0.056,0.169c-0.249,0.334-0.516,0.634-0.85,0.884
	c-0.048,0.036-0.129,0.075-0.129,0.143c0,1.756-0.449,3.509-1.729,4.781c-1.63,1.619-4.075,2.06-6.245,1.461
	C6,13.99,5.598,13.827,5.213,13.623c-0.127-0.07-0.253-0.142-0.376-0.223c-0.031-0.025-0.055-0.048-0.028-0.064
	c0.027-0.014,0.047-0.015,0.144,0c0.608,0.06,1.232-0.031,1.807-0.231c0.315-0.11,0.994-0.332,1.189-0.631
	c0.005-0.007,0.009-0.007,0.014-0.014c-0.079-0.018-0.158-0.018-0.237-0.032c-0.59-0.169-1.378-0.464-1.743-1.459
	c-0.023-0.058,0-0.088,0.061-0.077c0.486,0.038,0.66,0.011,0.829-0.025c-0.095-0.017-0.192-0.049-0.28-0.086
	C5.85,10.497,5.307,9.772,5.208,8.989C5.197,8.898,5.19,8.822,5.194,8.738C5.199,8.68,5.225,8.661,5.276,8.694
	c0.382,0.198,0.811,0.244,0.846,0.237c-0.095-0.075-0.184-0.156-0.27-0.237c-0.644-0.61-0.894-1.852-0.378-2.625
	c0.041-0.063,0.069-0.063,0.12-0.005c1.179,1.343,2.63,1.97,4.381,2.23c0.046,0.007,0.051,0,0.044-0.051
	c-0.046-0.308-0.052-0.61,0.022-0.916c0.078-0.316,0.229-0.614,0.434-0.867c0.198-0.244,0.446-0.447,0.725-0.592
	c0.278-0.145,0.585-0.233,0.898-0.253c0.322-0.021,0.649,0.03,0.948,0.152c0.227,0.093,0.429,0.219,0.617,0.379
	c0.04,0.033,0.074,0.072,0.111,0.114c0.023,0.023,0.051,0.032,0.088,0.023c0.448-0.112,0.869-0.27,1.275-0.488
	c0.018-0.009,0.034-0.014,0.057-0.005c0.018,0.014,0.011,0.037,0.003,0.056c-0.074,0.237-0.202,0.457-0.357,0.651
	c-0.103,0.127-0.357,0.439-0.529,0.469c0.364-0.061,0.737-0.154,1.075-0.307c0.042-0.02,0.043-0.028,0.043,0V6.668z"/>
<rect x="-4.621" y="-4.622" fill="none" width="29.243" height="29.243"/>
</svg>
